<?xml version="1.0" standalone="no"?>
<!DOCTYPE svg PUBLIC "-//W3C//DTD SVG 20010904//EN"
 "http://www.w3.org/TR/2001/REC-SVG-20010904/DTD/svg10.dtd">
<svg version="1.0" xmlns="http://www.w3.org/2000/svg"
 width="1024.000000pt" height="1024.000000pt" viewBox="0 0 1024.000000 1024.000000"
 preserveAspectRatio="xMidYMid meet">

<g transform="translate(0.000000,1024.000000) scale(0.100000,-0.100000)"
fill="#000000" stroke="none">
<path d="M6590 7320 l0 -770 790 0 790 0 0 770 0 770 -790 0 -790 0 0 -770z"/>
<path d="M2798 8069 c-203 -30 -392 -125 -509 -257 -79 -89 -147 -209 -180
-317 -41 -131 -41 -143 -49 -805 -6 -571 -9 -652 -24 -705 -28 -95 -75 -175
-146 -246 -80 -80 -165 -124 -284 -147 l-86 -16 2 -295 3 -295 45 -4 c219 -16
401 -175 467 -407 15 -53 17 -144 23 -775 6 -670 8 -721 27 -805 43 -191 117
-329 243 -455 191 -190 402 -260 786 -260 l181 0 -1 275 -1 275 -75 0 c-269 0
-421 102 -486 326 -15 52 -18 137 -24 714 -6 625 -8 660 -29 759 -62 291 -206
501 -425 621 l-64 36 52 27 c179 94 332 276 402 480 55 157 56 169 63 817 8
656 8 655 66 756 31 53 106 121 161 145 68 31 169 49 271 49 l92 0 0 260 0
260 -222 -1 c-122 -1 -248 -5 -279 -10z"/>
<path d="M5730 6438 l0 -522 -42 41 c-96 92 -231 143 -377 143 -164 0 -285
-51 -401 -169 -96 -97 -165 -229 -209 -401 -43 -167 -51 -240 -58 -480 -14
-534 68 -839 280 -1036 113 -106 235 -154 392 -154 103 0 188 20 270 63 58 31
154 116 188 167 15 24 16 21 16 -72 l1 -98 255 0 255 0 0 1520 0 1520 -285 0
-285 0 0 -522z m-97 -851 c51 -30 94 -77 114 -124 10 -26 13 -128 13 -489 0
-453 0 -457 -22 -502 -82 -163 -327 -192 -438 -52 -81 102 -104 223 -104 545
0 407 44 556 184 628 49 26 63 28 131 25 60 -4 86 -10 122 -31z"/>
<path d="M7520 6213 c1 -195 40 -384 106 -518 82 -168 207 -302 351 -377 l61
-32 -61 -34 c-166 -92 -308 -259 -376 -442 -67 -181 -79 -338 -76 -975 3 -613
-7 -699 -91 -823 -79 -114 -200 -169 -394 -179 l-120 -6 0 -274 0 -273 193 0
c218 0 337 15 464 59 298 103 489 326 570 666 14 60 17 169 23 785 6 627 9
723 24 779 64 243 246 400 481 414 l40 2 3 296 2 295 -91 17 c-125 22 -207 63
-289 146 -112 112 -157 227 -167 423 l-6 108 -323 0 -324 0 0 -57z"/>
<path d="M4350 6076 c-138 -39 -261 -139 -321 -262 l-34 -69 -3 55 c-2 30 -2
101 0 157 l3 103 -282 0 -283 0 0 -1070 0 -1070 290 0 290 0 0 651 0 650 28
57 c80 164 258 252 485 238 l97 -6 0 290 0 290 -112 -1 c-62 0 -133 -6 -158
-13z"/>
</g>
</svg>
